<?xml version="1.0" encoding="UTF-8"?>
<svg width="18px" height="20px" viewBox="0 0 18 20" version="1.1" xmlns="http://www.w3.org/2000/svg" xmlns:xlink="http://www.w3.org/1999/xlink">
    <!-- Generator: Sketch 53.2 (72643) - https://sketchapp.com -->
    <title>hand</title>
    <desc>Created with Sketch.</desc>
    <g id="hand" stroke="none" stroke-width="1" fill="none" fill-rule="evenodd">
        <path d="M14.2857313,17.8571641 C14.2857313,17.4665387 13.9620702,17.1428776 13.5714447,17.1428776 C13.1808193,17.1428776 12.8571582,17.4665387 12.8571582,17.8571641 C12.8571582,18.2477896 13.1808193,18.5714507 13.5714447,18.5714507 C13.9620702,18.5714507 14.2857313,18.2477896 14.2857313,17.8571641 Z M15.7143044,9.33036827 C15.7143044,8.06920605 15.200911,7.22099075 13.8504629,7.22099075 C13.6384091,7.22099075 13.4263553,7.24331221 13.2254622,7.27679439 C12.9687655,6.80804383 12.332604,6.5513471 11.8192105,6.5513471 C11.5513531,6.5513471 11.2834956,6.61831146 11.0491203,6.75224019 C10.691977,6.37277545 10.2455479,6.16072163 9.72099373,6.16072163 C9.36385045,6.16072163 8.83929625,6.31697182 8.57143879,6.5513471 L8.57143879,2.85714626 C8.57143879,2.08705606 7.91295586,1.42857313 7.14286566,1.42857313 C6.38393618,1.42857313 5.71429253,2.10937751 5.71429253,2.85714626 L5.71429253,9.28572536 C5.01116669,9.28572536 4.28571939,8.21429551 2.85714626,8.21429551 C1.78571641,8.21429551 1.42857313,9.05135008 1.42857313,10.0000119 C1.42857313,10.3125123 2.72321753,10.8817094 2.97991427,11.0044774 C3.22545027,11.1384061 3.47098628,11.2723349 3.70536156,11.4174243 C4.29688012,11.7857283 4.81027359,12.209836 5.32366706,12.6674258 C6.13840017,13.3817124 7.14286566,14.174124 7.14286566,15.3571612 L7.14286566,15.7143044 L14.2857313,15.7143044 L14.2857313,15.3571612 C14.2857313,13.4040338 15.7143044,11.4955494 15.7143044,9.33036827 Z M17.1428776,9.27456463 C17.1428776,10.5245661 16.796895,11.7076032 16.3727874,12.8683189 C16.1272514,13.5491233 15.7143044,14.6540353 15.7143044,15.3571612 L15.7143044,18.5714507 C15.7143044,19.3638624 15.078143,20.0000238 14.2857313,20.0000238 L7.14286566,20.0000238 C6.350454,20.0000238 5.71429253,19.3638624 5.71429253,18.5714507 L5.71429253,15.3571612 C5.71429253,14.8214462 4.75446995,14.0625168 4.38616594,13.7388557 C3.92857611,13.3370695 3.47098628,12.9576047 2.94643208,12.6227829 C1.90848442,11.9754607 0,11.4955494 0,10.0000119 C0,8.22545623 0.9709833,6.78572237 2.85714626,6.78572237 C3.34821828,6.78572237 3.82812956,6.86384747 4.28571939,7.03125838 L4.28571939,2.85714626 C4.28571939,1.31696586 5.59152452,0 7.13170493,0 C8.69420679,0 10.0000119,1.2946444 10.0000119,2.85714626 L10.0000119,4.74330923 C10.4687625,4.77679141 10.9151916,4.92188087 11.3281385,5.15625615 C11.4843887,5.13393469 11.6517996,5.12277396 11.8080498,5.12277396 C12.5223364,5.12277396 13.2366229,5.35714924 13.7946593,5.79241762 C15.9040368,5.77009616 17.1428776,7.20983002 17.1428776,9.27456463 Z" id="" fill="#000000" fill-rule="nonzero"></path>
    </g>
</svg>