<?xml version="1.0" encoding="UTF-8"?>
<svg width="19px" height="13px" viewBox="0 0 19 13" version="1.1" xmlns="http://www.w3.org/2000/svg" xmlns:xlink="http://www.w3.org/1999/xlink">
    <!-- Generator: Sketch 53.2 (72643) - https://sketchapp.com -->
    <title>icon/eye/blue</title>
    <desc>Created with Sketch.</desc>
    <g id="icon/eye/blue" stroke="none" stroke-width="1" fill="none" fill-rule="evenodd">
        <path d="M9.18,3.76 C9.6200022,3.76 10.0333314,3.8733322 10.42,4.1 C10.8066686,4.3266678 11.1133322,4.6333314 11.34,5.02 C11.5666678,5.4066686 11.68,5.8199978 11.68,6.26 C11.68,6.7000022 11.5666678,7.1133314 11.34,7.5 C11.1133322,7.8866686 10.8066686,8.1933322 10.42,8.42 C10.0333314,8.6466678 9.6200022,8.76 9.18,8.76 C8.7399978,8.76 8.3266686,8.6466678 7.94,8.42 C7.5533314,8.1933322 7.2466678,7.8866686 7.02,7.5 C6.7933322,7.1133314 6.68,6.7000022 6.68,6.26 C6.68,5.8199978 6.7933322,5.4066686 7.02,5.02 C7.2466678,4.6333314 7.5533314,4.3266678 7.94,4.1 C8.3266686,3.8733322 8.7399978,3.76 9.18,3.76 Z M9.18,10.44 C9.9400038,10.44 10.6399968,10.2533352 11.28,9.88 C11.9200032,9.5066648 12.4266648,9.0000032 12.8,8.36 C13.1733352,7.7199968 13.36,7.0200038 13.36,6.26 C13.36,5.4999962 13.1733352,4.8000032 12.8,4.16 C12.4266648,3.5199968 11.9200032,3.0133352 11.28,2.64 C10.6399968,2.2666648 9.9400038,2.08 9.18,2.08 C8.4199962,2.08 7.7200032,2.2666648 7.08,2.64 C6.4399968,3.0133352 5.9333352,3.5199968 5.56,4.16 C5.1866648,4.8000032 5,5.4999962 5,6.26 C5,7.0200038 5.1866648,7.7199968 5.56,8.36 C5.9333352,9.0000032 6.4399968,9.5066648 7.08,9.88 C7.7200032,10.2533352 8.4199962,10.44 9.18,10.44 Z M9.18,0 C10.5533402,0 11.8599938,0.266664 13.1,0.8 C14.300006,1.3200026 15.3566621,2.0533286 16.27,3 C17.1833379,3.9466714 17.8799976,5.0333272 18.36,6.26 C17.8799976,7.4866728 17.1833379,8.5699953 16.27,9.51 C15.3566621,10.4500047 14.300006,11.1799974 13.1,11.7 C11.8599938,12.233336 10.5533402,12.5 9.18,12.5 C7.8066598,12.5 6.5000062,12.233336 5.26,11.7 C4.059994,11.1799974 3.0033379,10.4500047 2.09,9.51 C1.1766621,8.5699953 0.4800024,7.4866728 0,6.26 C0.4800024,5.0333272 1.1766621,3.9466714 2.09,3 C3.0033379,2.0533286 4.059994,1.3200026 5.26,0.8 C6.5000062,0.266664 7.8066598,0 9.18,0 Z" id="" fill="#1E60A0" fill-rule="nonzero"></path>
    </g>
</svg>