<?xml version="1.0" encoding="UTF-8"?>
<svg width="15px" height="15px" viewBox="0 0 15 15" version="1.1" xmlns="http://www.w3.org/2000/svg" xmlns:xlink="http://www.w3.org/1999/xlink">
    <!-- Generator: Sketch 53.2 (72643) - https://sketchapp.com -->
    <title>icon/search/blue</title>
    <desc>Created with Sketch.</desc>
    <g id="icon/search/blue" stroke="none" stroke-width="1" fill="none" fill-rule="evenodd">
        <path d="M10.9375,9.140625 L10.78125,9.4140625 L15,13.671875 L13.671875,15 L9.453125,10.7421875 L9.1796875,10.9375 C8.13801562,11.5885449 7.05729727,11.9140625 5.9375,11.9140625 C4.2968668,11.9140625 2.89714121,11.3281309 1.73828125,10.15625 C0.579421289,8.98436914 0,7.5781332 0,5.9375 C0,4.2968668 0.579421289,2.89714121 1.73828125,1.73828125 C2.89714121,0.579421289 4.2968668,0 5.9375,0 C7.5781332,0 8.97785879,0.579421289 10.1367188,1.73828125 C11.2955787,2.89714121 11.875,4.2968668 11.875,5.9375 C11.875,7.08333906 11.5625031,8.15103672 10.9375,9.140625 Z M9.2578125,2.6171875 C8.34634961,1.70572461 7.23958984,1.25 5.9375,1.25 C4.63541016,1.25 3.52865039,1.70572461 2.6171875,2.6171875 C1.70572461,3.52865039 1.25,4.63541016 1.25,5.9375 C1.25,7.23958984 1.70572461,8.34634961 2.6171875,9.2578125 C3.52865039,10.1692754 4.63541016,10.625 5.9375,10.625 C7.23958984,10.625 8.34634961,10.1692754 9.2578125,9.2578125 C10.1953172,8.32030781 10.6640625,7.21354805 10.6640625,5.9375 C10.6640625,4.66145195 10.1953172,3.55469219 9.2578125,2.6171875 Z" id="" fill="#042D5F" fill-rule="nonzero"></path>
    </g>
</svg>