<?xml version="1.0" encoding="UTF-8"?>
<svg width="12px" height="17px" viewBox="0 0 12 17" version="1.1" xmlns="http://www.w3.org/2000/svg" xmlns:xlink="http://www.w3.org/1999/xlink">
    <!-- Generator: Sketch 53.2 (72643) - https://sketchapp.com -->
    <title>icon/location/blue</title>
    <desc>Created with Sketch.</desc>
    <g id="icon/location/blue" stroke="none" stroke-width="1" fill="none" fill-rule="evenodd">
        <path d="M5.82,7.88 C6.1933352,7.88 6.5399984,7.7866676 6.86,7.6 C7.1800016,7.4133324 7.4333324,7.1633349 7.62,6.85 C7.8066676,6.5366651 7.9,6.1933352 7.9,5.82 C7.9,5.4466648 7.8066676,5.1000016 7.62,4.78 C7.4333324,4.4599984 7.1800016,4.2066676 6.86,4.02 C6.5399984,3.8333324 6.1933352,3.74 5.82,3.74 C5.4466648,3.74 5.1033349,3.8333324 4.79,4.02 C4.4766651,4.2066676 4.2266676,4.4599984 4.04,4.78 C3.8533324,5.1000016 3.76,5.4466648 3.76,5.82 C3.76,6.3933362 3.959998,6.879998 4.36,7.28 C4.760002,7.680002 5.2466638,7.88 5.82,7.88 Z M5.82,4.97379915e-14 C6.886672,4.97379915e-14 7.8666622,0.2599974 8.76,0.78 C9.6400044,1.3000026 10.3399974,1.9999956 10.86,2.88 C11.3800026,3.7733378 11.64,4.753328 11.64,5.82 C11.64,6.6333374 11.440002,7.5666614 11.04,8.62 C10.6933316,9.5133378 10.2133364,10.4799948 9.6,11.52 C9.0933308,12.3466708 8.5133366,13.2066622 7.86,14.1 C7.4066644,14.7266698 6.9266692,15.339997 6.42,15.94 L5.82,16.64 L5.22,15.94 C4.7133308,15.339997 4.2333356,14.7266698 3.78,14.1 C3.1266634,13.2066622 2.5466692,12.3466708 2.04,11.52 C1.4266636,10.4799948 0.9466684,9.5133378 0.6,8.62 C0.199998,7.5666614 -2.91322522e-13,6.6333374 -2.91322522e-13,5.82 C-2.91322522e-13,4.753328 0.2599974,3.7733378 0.78,2.88 C1.3000026,1.9999956 1.9999956,1.3000026 2.88,0.78 C3.7733378,0.2599974 4.753328,4.97379915e-14 5.82,4.97379915e-14 Z" id="" fill="#042D5F" fill-rule="nonzero"></path>
    </g>
</svg>