<?xml version="1.0" encoding="UTF-8"?>
<svg width="15px" height="15px" viewBox="0 0 15 15" version="1.1" xmlns="http://www.w3.org/2000/svg" xmlns:xlink="http://www.w3.org/1999/xlink">
    <!-- Generator: Sketch 53.2 (72643) - https://sketchapp.com -->
    <title>icon/phone/blue</title>
    <desc>Created with Sketch.</desc>
    <g id="icon/phone/blue" stroke="none" stroke-width="1" fill="none" fill-rule="evenodd">
        <path d="M10,7.5 C10,7.0599978 9.8866678,6.6466686 9.66,6.26 C9.4333322,5.8733314 9.1266686,5.5666678 8.74,5.34 C8.3533314,5.1133322 7.9400022,5 7.5,5 L7.5,3.32 C8.2600038,3.32 8.9599968,3.5066648 9.6,3.88 C10.2400032,4.2533352 10.7466648,4.7599968 11.12,5.4 C11.4933352,6.0400032 11.68,6.7399962 11.68,7.5 L10,7.5 Z M13.32,7.5 C13.32,6.433328 13.0600026,5.4533378 12.54,4.56 C12.0199974,3.6799956 11.3200044,2.9800026 10.44,2.46 C9.5466622,1.9399974 8.566672,1.68 7.5,1.68 L7.5,0 C8.8600068,0 10.1199942,0.3399966 11.28,1.02 C12.413339,1.68667 13.31333,2.586661 13.98,3.72 C14.6600034,4.8800058 15,6.1399932 15,7.5 L13.32,7.5 Z M14.18,10.42 C14.4066678,10.42 14.5999992,10.4999992 14.76,10.66 C14.9200008,10.8200008 15,11.0133322 15,11.24 L15,14.18 C15,14.4066678 14.9200008,14.5999992 14.76,14.76 C14.5999992,14.9200008 14.4066678,15 14.18,15 C12.2599904,15 10.4200088,14.6266704 8.66,13.88 C6.9666582,13.1599964 5.4666732,12.1466732 4.16,10.84 C2.8533268,9.5333268 1.8400036,8.0333418 1.12,6.34 C0.3733296,4.5799912 0,2.7400096 0,0.82 C0,0.5933322 0.0799992,0.4000008 0.24,0.24 C0.4000008,0.0799992 0.5933322,0 0.82,0 L3.76,0 C3.9866678,0 4.1799992,0.0799992 4.34,0.24 C4.5000008,0.4000008 4.58,0.5933322 4.58,0.82 C4.58,1.9133388 4.7333318,2.8999956 5.04,3.78 C5.0800002,3.9266674 5.0866668,4.0799992 5.06,4.24 C5.0333332,4.4000008 4.9600006,4.5333328 4.84,4.64 L3,6.48 C3.600003,7.6533392 4.3733286,8.7133286 5.32,9.66 C6.2666714,10.6066714 7.3333274,11.3866636 8.52,12 L10.36,10.16 C10.4666672,10.0399994 10.5999992,9.9666668 10.76,9.94 C10.9200008,9.9133332 11.0733326,9.9199998 11.22,9.96 C12.1000044,10.2666682 13.0866612,10.42 14.18,10.42 Z" id="" fill="#042D5F" fill-rule="nonzero"></path>
    </g>
</svg>