<?xml version="1.0" encoding="UTF-8"?>
<svg width="19px" height="5px" viewBox="0 0 19 5" version="1.1" xmlns="http://www.w3.org/2000/svg" xmlns:xlink="http://www.w3.org/1999/xlink">
    <!-- Generator: Sketch 53.2 (72643) - https://sketchapp.com -->
    <title>icon/select-menu/lightblue</title>
    <desc>Created with Sketch.</desc>
    <g id="icon/select-menu/lightblue" stroke="none" stroke-width="1" fill="none" fill-rule="evenodd">
        <path d="M16.038,0 C16.4486687,0 16.8263316,0.10266564 17.171,0.308 C17.5156684,0.51333436 17.7906656,0.79199824 17.996,1.144 C18.2013344,1.49600176 18.304,1.87733128 18.304,2.288 C18.304,2.69866872 18.2013344,3.07633161 17.996,3.421 C17.7906656,3.76566839 17.5156684,4.04066564 17.171,4.246 C16.8263316,4.45133436 16.4486687,4.554 16.038,4.554 C15.5686643,4.554 15.1396686,4.42933458 14.751,4.18 C14.3623314,3.93066542 14.0873341,3.60066872 13.926,3.19 L11.264,3.19 C11.0879991,3.60066872 10.8093352,3.93066542 10.428,4.18 C10.0466648,4.42933458 9.62133568,4.554 9.152,4.554 C8.68266432,4.554 8.25733524,4.42933458 7.876,4.18 C7.49466476,3.93066542 7.21600088,3.60066872 7.04,3.19 L4.378,3.19 C4.21666586,3.60066872 3.94533524,3.93066542 3.564,4.18 C3.18266476,4.42933458 2.75733568,4.554 2.288,4.554 C1.87733128,4.554 1.49600176,4.45133436 1.144,4.246 C0.79199824,4.04066564 0.51333436,3.76566839 0.308,3.421 C0.10266564,3.07633161 0,2.69866872 0,2.288 C0,1.87733128 0.10266564,1.49600176 0.308,1.144 C0.51333436,0.79199824 0.79199824,0.51333436 1.144,0.308 C1.49600176,0.10266564 1.87733128,0 2.288,0 C2.75733568,0 3.18266476,0.12833205 3.564,0.385 C3.94533524,0.64166795 4.21666586,0.97533128 4.378,1.386 L7.04,1.386 C7.21600088,0.97533128 7.49466476,0.64166795 7.876,0.385 C8.25733524,0.12833205 8.68266432,0 9.152,0 C9.62133568,0 10.0466648,0.12833205 10.428,0.385 C10.8093352,0.64166795 11.0879991,0.97533128 11.264,1.386 L13.926,1.386 C14.0873341,0.97533128 14.3623314,0.64166795 14.751,0.385 C15.1396686,0.12833205 15.5686643,0 16.038,0 Z" id="" fill="#68819F" fill-rule="nonzero" transform="translate(9.152000, 2.277000) rotate(-360.000000) translate(-9.152000, -2.277000) "></path>
    </g>
</svg>