<?xml version="1.0" encoding="UTF-8"?>
<svg width="40px" height="21px" viewBox="0 0 40 21" version="1.1" xmlns="http://www.w3.org/2000/svg" xmlns:xlink="http://www.w3.org/1999/xlink">
    <!-- Generator: Sketch 53.2 (72643) - https://sketchapp.com -->
    <title>icon/scrool/down/black</title>
    <desc>Created with Sketch.</desc>
    <g id="icon/scrool/down/black" stroke="none" stroke-width="1" fill="none" fill-rule="evenodd">
        <path d="M4.61852778e-14,1.27624309 C4.61852778e-14,1.12154619 0.0322280387,0.960405994 0.0966850829,0.79281768 C0.161142127,0.625229365 0.257826243,0.476980387 0.386740331,0.348066298 C0.644568508,0.116020939 0.95395768,0 1.31491713,0 C1.67587657,0 1.98526575,0.116020939 2.24309392,0.348066298 L19.7237569,17.8287293 L36.9337017,0.61878453 C37.1915298,0.360956354 37.500919,0.232044199 37.8618785,0.232044199 C38.2228379,0.232044199 38.5322271,0.360956354 38.7900552,0.61878453 C39.0478834,0.876612707 39.1767956,1.18600188 39.1767956,1.54696133 C39.1767956,1.90792077 39.0478834,2.21730994 38.7900552,2.47513812 L20.6519337,20.6132597 C20.3941055,20.8710878 20.0847164,21 19.7237569,21 C19.3627975,21 19.0534083,20.8710878 18.7955801,20.6132597 L0.386740331,2.24309392 C0.257826243,2.11417983 0.161142127,1.96593086 0.0966850829,1.79834254 C0.0322280387,1.63075423 4.61852778e-14,1.45672282 4.61852778e-14,1.27624309 Z" id="" fill="#1E1E1E" fill-rule="nonzero"></path>
    </g>
</svg>