<?xml version="1.0" encoding="UTF-8"?>
<svg width="14px" height="12px" viewBox="0 0 14 12" version="1.1" xmlns="http://www.w3.org/2000/svg" xmlns:xlink="http://www.w3.org/1999/xlink">
    <!-- Generator: Sketch 53.2 (72643) - https://sketchapp.com -->
    <title>icon/left</title>
    <desc>Created with Sketch.</desc>
    <g id="icon/left" stroke="none" stroke-width="1" fill="none" fill-rule="evenodd">
        <path d="M0.79222793,4.9921875 L10.8820717,4.9921875 L7.08519668,1.3359375 C6.92113336,1.18359299 6.83910293,1.00195418 6.83910293,0.791015625 C6.83910293,0.58007707 6.91234439,0.395508604 7.05882949,0.237304688 C7.2053146,0.0791007715 7.38402375,0 7.59496231,0 C7.80590086,0 7.99339899,0.0703117969 8.15746231,0.2109375 L13.3254311,5.203125 C13.4894944,5.35546951 13.5715248,5.54003798 13.5715248,5.75683594 C13.5715248,5.9736339 13.4894944,6.15820236 13.3254311,6.31054688 L8.12230606,11.3203125 C7.96996154,11.4609382 7.79418205,11.53125 7.59496231,11.53125 C7.37230494,11.53125 7.18480682,11.4492196 7.03246231,11.2851562 C6.88011779,11.1328117 6.80687634,10.9511729 6.81273574,10.7402344 C6.81859515,10.5292958 6.89769592,10.347657 7.05004043,10.1953125 L10.8469154,6.5390625 L0.774649805,6.5390625 C0.575430059,6.5390625 0.399650567,6.4687507 0.247306055,6.328125 C0.0949615438,6.1874993 0.0129311141,6.01757912 0.0012123055,5.81835937 C-0.0105065031,5.59570201 0.062734952,5.40234457 0.220938868,5.23828125 C0.379142784,5.07421793 0.569570567,4.9921875 0.79222793,4.9921875 Z" id="-copy" fill="#F2F5F9" fill-rule="nonzero" transform="translate(6.785762, 5.765625) scale(-1, 1) translate(-6.785762, -5.765625) "></path>
    </g>
</svg>