<?xml version="1.0" encoding="UTF-8"?>
<svg width="16px" height="16px" viewBox="0 0 16 16" version="1.1" xmlns="http://www.w3.org/2000/svg" xmlns:xlink="http://www.w3.org/1999/xlink">
    <!-- Generator: Sketch 53.2 (72643) - https://sketchapp.com -->
    <title>icon/workers</title>
    <desc>Created with Sketch.</desc>
    <g id="icon/workers" stroke="none" stroke-width="1" fill="none" fill-rule="evenodd">
        <path d="M11.65625,13.046875 L12.078125,13.28125 C12.3593764,13.4375008 12.5,13.6406237 12.5,13.890625 L12.5,15.15625 C12.5,15.3958345 12.4166675,15.5963534 12.25,15.7578125 C12.0833325,15.9192716 11.8854178,16 11.65625,16 L0.84375,16 C0.614582187,16 0.4166675,15.9192716 0.25,15.7578125 C0.0833325,15.5963534 0,15.3958345 0,15.15625 L0,13.890625 C0,13.6614572 0.140623594,13.4635425 0.421875,13.296875 L0.84375,13.046875 L4.078125,11.296875 C3.48437203,10.8281227 3.07291781,10.2031289 2.84375,9.421875 C2.61458219,8.64062109 2.5,8.02083563 2.5,7.5625 L2.5,5.453125 C2.5,5.09895656 2.60937391,4.74739758 2.828125,4.3984375 C3.04687609,4.04947742 3.33333156,3.73437641 3.6875,3.453125 C4.04166844,3.17187359 4.44531023,2.94270922 4.8984375,2.765625 C5.35156477,2.58854078 5.80728937,2.5 6.265625,2.5 C6.73437734,2.5 7.19270609,2.58854078 7.640625,2.765625 C8.08854391,2.94270922 8.48697742,3.17187359 8.8359375,3.453125 C9.18489758,3.73437641 9.46614477,4.04947742 9.6796875,4.3984375 C9.89323023,4.74739758 10,5.09895656 10,5.453125 L10,7.5625 C10,8.07291922 9.89843852,8.70832953 9.6953125,9.46875 C9.49218648,10.2291705 9.09896125,10.8437477 8.515625,11.3125 L11.65625,13.046875 Z M11.5,15 L11.5,14.109375 C11.4687498,14.0781248 11.4322919,14.0520834 11.390625,14.03125 L11.265625,13.96875 C11.2552083,13.96875 11.2421876,13.9635417 11.2265625,13.953125 C11.2109374,13.9427083 11.1927084,13.9322917 11.171875,13.921875 L8.03125,12.1875 C7.88541594,12.1041663 7.76562547,11.9921882 7.671875,11.8515625 C7.57812453,11.7109368 7.52604172,11.5572925 7.515625,11.390625 C7.49479156,11.2239575 7.51822883,11.0625008 7.5859375,10.90625 C7.65364617,10.7499992 7.75520766,10.6197922 7.890625,10.515625 C8.31771047,10.18229 8.60937422,9.70573227 8.765625,9.0859375 C8.92187578,8.46614273 9,7.95833531 9,7.5625 L9,5.453125 C9,5.08853984 8.72656523,4.67187734 8.1796875,4.203125 C7.63280977,3.73437266 6.99479531,3.5 6.265625,3.5 C5.55728812,3.5 4.91927367,3.73437266 4.3515625,4.203125 C3.78385133,4.67187734 3.5,5.08853984 3.5,5.453125 L3.5,7.5625 C3.5,7.95833531 3.59374906,8.46614273 3.78125,9.0859375 C3.96875094,9.70573227 4.27603953,10.18229 4.703125,10.515625 C4.82812563,10.6197922 4.92447883,10.7499992 4.9921875,10.90625 C5.05989617,11.0625008 5.08333344,11.2239575 5.0625,11.390625 C5.05208328,11.5572925 5.00000047,11.7109368 4.90625,11.8515625 C4.81249953,11.9921882 4.69270906,12.098958 4.546875,12.171875 L1.3125,13.9375 C1.30208328,13.9375 1.29166672,13.9401041 1.28125,13.9453125 C1.27083328,13.9505209 1.26041672,13.9583333 1.25,13.96875 C1.20833313,13.9791667 1.16406273,13.9999998 1.1171875,14.03125 L1,14.109375 L1,15 L11.5,15 Z M15.15625,10.5625 C15.15625,10.5625 15.2968736,10.6406242 15.578125,10.796875 C15.8593764,10.9531258 16,11.1562487 16,11.40625 L16,12.65625 C16,12.8958345 15.9166675,13.0963534 15.75,13.2578125 C15.5833325,13.4192716 15.3854178,13.5 15.15625,13.5 L13.5,13.5 C13.4374997,13.2812489 13.3723962,13.0885425 13.3046875,12.921875 C13.2369788,12.7552075 13.1302091,12.6145839 12.984375,12.5 L15,12.5 L15,11.609375 C14.9687498,11.5885416 14.9322919,11.5651043 14.890625,11.5390625 C14.8489581,11.5130207 14.8072919,11.4947917 14.765625,11.484375 C14.7552083,11.4739583 14.7421876,11.4661459 14.7265625,11.4609375 C14.7109374,11.4557291 14.6927084,11.4479167 14.671875,11.4375 L11.484375,9.703125 C11.3385409,9.61979125 11.2187505,9.5078132 11.125,9.3671875 C11.0312495,9.2265618 10.9791667,9.0729175 10.96875,8.90625 C10.9479166,8.7395825 10.9713538,8.57812578 11.0390625,8.421875 C11.1067712,8.26562422 11.2083327,8.13541719 11.34375,8.03125 C11.7708355,7.68749828 12.0703116,7.20573227 12.2421875,6.5859375 C12.4140634,5.96614273 12.5,5.46354359 12.5,5.078125 L12.5,2.96875 C12.5,2.59374813 12.2187528,2.17187734 11.65625,1.703125 C11.0937472,1.23437266 10.4479203,1 9.71875,1 C9.36458156,1 9.02343914,1.05729109 8.6953125,1.171875 C8.36718586,1.28645891 8.07291797,1.44270734 7.8125,1.640625 C7.61458234,1.57812469 7.40625109,1.54166672 7.1875,1.53125 C6.96874891,1.52083328 6.75520937,1.51041672 6.546875,1.5 C6.91146016,1.07291453 7.38020547,0.713543125 7.953125,0.421875 C8.52604453,0.130206875 9.11458031,-0.015625 9.71875,-0.015625 C10.1875023,-0.015625 10.6484352,0.0755199219 11.1015625,0.2578125 C11.5546898,0.440105078 11.9583316,0.671873594 12.3125,0.953125 C12.6666684,1.23437641 12.9531239,1.55208156 13.171875,1.90625 C13.3906261,2.26041844 13.5,2.61458156 13.5,2.96875 L13.5,5.078125 C13.5,5.5781275 13.3906261,6.21093367 13.171875,6.9765625 C12.9531239,7.74219133 12.5520863,8.35416437 11.96875,8.8125 L15.15625,10.5625 Z" id="î€" fill="#042D5F" fill-rule="nonzero"></path>
    </g>
</svg>