<?xml version="1.0" encoding="UTF-8"?>
<svg width="16px" height="16px" viewBox="0 0 16 16" version="1.1" xmlns="http://www.w3.org/2000/svg" xmlns:xlink="http://www.w3.org/1999/xlink">
    <!-- Generator: Sketch 53.2 (72643) - https://sketchapp.com -->
    <title>icon/chat/blue</title>
    <desc>Created with Sketch.</desc>
    <g id="icon/chat/blue" stroke="none" stroke-width="1" fill="none" fill-rule="evenodd">
        <path d="M3.86975097,14.8582764 C5.10595703,15.6021728 6.51940919,15.9942627 7.97167969,15.9942627 C12.3724365,15.9942627 16,12.4031982 16,7.99707031 C16,3.59606934 12.3775635,0 7.97167969,0 C3.57922363,0 0.0057373125,3.58752441 0.0057373125,7.99707031 C0.0057373125,9.46875 0.397949219,10.8929443 1.14172363,12.1301269 L0,16 L3.86975097,14.8582764 Z M1,8 C1,4.14022653 4.12630761,1 7.9690153,1 C11.8458546,1 15,4.14022653 15,8 C15,11.8598945 11.8458546,15 7.9690153,15 C6.63497881,15 5.33858391,14.6221319 4.220351,13.9070632 L4.04170485,13.7929282 L1.43935335,14.5607677 L2.20707183,11.9582951 L2.09293682,11.77977 C1.37786809,10.6612951 1,9.35437021 1,8 Z" id="Shape" fill="#042D5F" fill-rule="nonzero"></path>
    </g>
</svg>