<?xml version="1.0" encoding="UTF-8"?>
<svg width="15px" height="15px" viewBox="0 0 15 15" version="1.1" xmlns="http://www.w3.org/2000/svg" xmlns:xlink="http://www.w3.org/1999/xlink">
    <!-- Generator: Sketch 53.2 (72643) - https://sketchapp.com -->
    <title>icon/person/gray</title>
    <desc>Created with Sketch.</desc>
    <g id="icon/person/gray" stroke="none" stroke-width="1" fill="none" fill-rule="evenodd">
        <path d="M15,15 L0,15 C0,14.3229133 0.0260414062,13.8020852 0.078125,13.4375 C0.182292188,12.9166641 1.23696914,12.2786496 3.2421875,11.5234375 C3.55468906,11.4192703 3.93228945,11.2890633 4.375,11.1328125 C4.97396133,10.9244781 5.32552031,10.7617193 5.4296875,10.6445312 C5.53385469,10.5273432 5.5859375,10.1822945 5.5859375,9.609375 L5.5859375,9.375 C5.5859375,9.06249844 5.46875117,8.75651191 5.234375,8.45703125 C4.99999883,8.15755059 4.81770898,7.63021211 4.6875,6.875 C4.63541641,6.61458203 4.55729219,6.40625078 4.453125,6.25 C4.34895781,6.09374922 4.24479219,5.78125234 4.140625,5.3125 C4.06249961,5.07812383 4.05598926,4.85677187 4.12109375,4.6484375 C4.18619824,4.44010313 4.21875,4.30989609 4.21875,4.2578125 C4.16666641,3.84114375 4.11458359,3.41146055 4.0625,2.96875 C4.01041641,2.36978867 4.27083047,1.72526387 4.84375,1.03515625 C5.41666953,0.345048633 6.30207734,0 7.5,0 C8.69792266,0 9.58333047,0.345048633 10.15625,1.03515625 C10.7291695,1.72526387 10.9895836,2.36978867 10.9375,2.96875 C10.8854164,3.41146055 10.8333336,3.84114375 10.78125,4.2578125 C10.78125,4.30989609 10.8138018,4.44010313 10.8789062,4.6484375 C10.9440107,4.85677187 10.9375004,5.07812383 10.859375,5.3125 C10.7552078,5.78125234 10.6510422,6.09374922 10.546875,6.25 C10.4427078,6.40625078 10.3645836,6.61458203 10.3125,6.875 C10.182291,7.63021211 10.0000012,8.15755059 9.765625,8.45703125 C9.53124883,8.75651191 9.4140625,9.06249844 9.4140625,9.375 C9.4140625,10.1562539 9.49218672,10.5989578 9.6484375,10.703125 C9.70052109,10.7552086 10.3385355,11.002602 11.5625,11.4453125 C11.6145836,11.4713543 11.6796871,11.4973957 11.7578125,11.5234375 C13.7630309,12.2786496 14.8177078,12.9166641 14.921875,13.4375 L15,15 Z" id="" fill="#68819F" fill-rule="nonzero"></path>
    </g>
</svg>