<?xml version="1.0" encoding="UTF-8"?>
<svg width="15px" height="17px" viewBox="0 0 15 17" version="1.1" xmlns="http://www.w3.org/2000/svg" xmlns:xlink="http://www.w3.org/1999/xlink">
    <!-- Generator: Sketch 53.2 (72643) - https://sketchapp.com -->
    <title>icon/calendar</title>
    <desc>Created with Sketch.</desc>
    <g id="icon/calendar" stroke="none" stroke-width="1" fill="none" fill-rule="evenodd">
        <path d="M13.32,15 L13.32,5.82 L1.68,5.82 L1.68,15 L13.32,15 Z M13.32,1.64 C13.7733356,1.64 14.166665,1.806665 14.5,2.14 C14.833335,2.473335 15,2.8666644 15,3.32 L15,15 C15,15.4533356 14.833335,15.8399984 14.5,16.16 C14.166665,16.4800016 13.7733356,16.64 13.32,16.64 L1.68,16.64 C1.213331,16.64 0.8166683,16.4800016 0.49,16.16 C0.1633317,15.8399984 0,15.4533356 0,15 L0,3.32 C0,2.8666644 0.1633317,2.473335 0.49,2.14 C0.8166683,1.806665 1.213331,1.64 1.68,1.64 L2.5,1.64 L2.5,0 L4.18,0 L4.18,1.64 L10.82,1.64 L10.82,0 L12.5,0 L12.5,1.64 L13.32,1.64 Z M11.68,7.5 L11.68,9.14 L10,9.14 L10,7.5 L11.68,7.5 Z M8.32,7.5 L8.32,9.14 L6.68,9.14 L6.68,7.5 L8.32,7.5 Z M5,7.5 L5,9.14 L3.32,9.14 L3.32,7.5 L5,7.5 Z" id="" fill="#68819F" fill-rule="nonzero"></path>
    </g>
</svg>