<?xml version="1.0" encoding="UTF-8"?>
<svg width="16px" height="16px" viewBox="0 0 16 16" version="1.1" xmlns="http://www.w3.org/2000/svg" xmlns:xlink="http://www.w3.org/1999/xlink">
    <!-- Generator: Sketch 53.2 (72643) - https://sketchapp.com -->
    <title>icon/documents</title>
    <desc>Created with Sketch.</desc>
    <g id="icon/documents" stroke="none" stroke-width="1" fill="none" fill-rule="evenodd">
        <path d="M12,0 L16,4 L16,13 C16,13.2812514 15.9036468,13.5182282 15.7109375,13.7109375 C15.5182282,13.9036468 15.2812514,14 15,14 L11.5,14 L11.5,13 L15,13 L15,5 L11,5 L11,1 L5.5,1 C5.5,0.718748594 5.5963532,0.481771797 5.7890625,0.2890625 C5.9817718,0.0963532031 6.21874859,0 6.5,0 L12,0 Z M12,4 L14.578125,4 L12,1.40625 L12,4 Z M1,2 L6.5,2 L10.5,6 L10.5,15 C10.5,15.2812514 10.4036468,15.5182282 10.2109375,15.7109375 C10.0182282,15.9036468 9.78125141,16 9.5,16 L1,16 C0.718748594,16 0.481771797,15.9036468 0.2890625,15.7109375 C0.0963532031,15.5182282 0,15.2812514 0,15 L0,3 C0,2.71874859 0.0963532031,2.4817718 0.2890625,2.2890625 C0.481771797,2.0963532 0.718748594,2 1,2 Z M9.5,15 L9.5,7 L5.5,7 L5.5,3 L1,3 L1,15 L9.5,15 Z M6.5,6 L9.078125,6 L6.5,3.40625 L6.5,6 Z" id="î€" fill="#042D5F" fill-rule="nonzero"></path>
    </g>
</svg>