<?xml version="1.0" encoding="UTF-8"?>
<svg width="17px" height="14px" viewBox="0 0 17 14" version="1.1" xmlns="http://www.w3.org/2000/svg" xmlns:xlink="http://www.w3.org/1999/xlink">
    <!-- Generator: Sketch 53.2 (72643) - https://sketchapp.com -->
    <title>icon/mail/blue</title>
    <desc>Created with Sketch.</desc>
    <g id="icon/mail/blue" stroke="none" stroke-width="1" fill="none" fill-rule="evenodd">
        <path d="M15,3.36 L15,1.68 L8.32,5.86 L1.64,1.68 L1.64,3.36 L8.32,7.5 L15,3.36 Z M15,-4.97379915e-14 C15.4533356,-4.97379915e-14 15.8399984,0.166665 16.16,0.5 C16.4800016,0.833335 16.64,1.2266644 16.64,1.68 L16.64,11.68 C16.64,12.1333356 16.4800016,12.526665 16.16,12.86 C15.8399984,13.193335 15.4533356,13.36 15,13.36 L1.64,13.36 C1.1866644,13.36 0.8000016,13.193335 0.48,12.86 C0.1599984,12.526665 -2.91544566e-13,12.1333356 -2.91322522e-13,11.68 L-2.91322522e-13,1.68 C-2.91544566e-13,1.2266644 0.1599984,0.833335 0.48,0.5 C0.8000016,0.166665 1.1866644,-4.97379915e-14 1.64,-4.97379915e-14 L15,-4.97379915e-14 Z" id="î¤" fill="#042D5F" fill-rule="nonzero"></path>
    </g>
</svg>