<?xml version="1.0" encoding="UTF-8"?>
<svg width="12px" height="14px" viewBox="0 0 12 14" version="1.1" xmlns="http://www.w3.org/2000/svg" xmlns:xlink="http://www.w3.org/1999/xlink">
    <!-- Generator: Sketch 53.2 (72643) - https://sketchapp.com -->
    <title>icon/right/lightblue</title>
    <desc>Created with Sketch.</desc>
    <g id="icon/right/lightblue" stroke="none" stroke-width="1" fill="none" fill-rule="evenodd">
        <path d="M-0.18276014,6.19512195 L10.2256364,6.19512195 L6.30888791,2.3902439 C6.13964484,2.23170652 6.05502458,2.04268402 6.05502458,1.82317073 C6.05502458,1.60365744 6.13057838,1.41158619 6.28168826,1.24695122 C6.43279815,1.08231625 6.61714944,1 6.83474766,1 C7.05234589,1 7.24576364,1.07317 7.41500671,1.2195122 L12.7461367,6.41463415 C12.9153797,6.57317152 13,6.76524277 13,6.99085366 C13,7.21646454 12.9153797,7.40853579 12.7461367,7.56707317 L7.37874052,12.7804878 C7.22158624,12.92683 7.0402571,13 6.83474766,13 C6.60506065,13 6.4116429,12.914635 6.25448862,12.7439024 C6.09733434,12.5853651 6.02178054,12.3963426 6.02782493,12.1768293 C6.03386933,11.957316 6.11546744,11.7682935 6.27262172,11.6097561 L10.1893703,7.80487805 L-0.200893235,7.80487805 C-0.406402674,7.80487805 -0.587731812,7.73170805 -0.744886089,7.58536585 C-0.902040365,7.43902366 -0.98666063,7.26219616 -0.99874942,7.05487805 C-1.01083821,6.82316957 -0.935284403,6.62195207 -0.772085731,6.45121951 C-0.608887059,6.28048695 -0.41244716,6.19512195 -0.18276014,6.19512195 Z" id="" fill="#68819F" fill-rule="nonzero" transform="translate(6.000000, 7.000000) rotate(-270.000000) translate(-6.000000, -7.000000) "></path>
    </g>
</svg>