<?xml version="1.0" encoding="UTF-8"?>
<svg width="16px" height="16px" viewBox="0 0 16 16" version="1.1" xmlns="http://www.w3.org/2000/svg" xmlns:xlink="http://www.w3.org/1999/xlink">
    <!-- Generator: Sketch 53.2 (72643) - https://sketchapp.com -->
    <title>icon/structure/lightblue</title>
    <desc>Created with Sketch.</desc>
    <g id="icon/structure/lightblue" stroke="none" stroke-width="1" fill="none" fill-rule="evenodd">
        <path d="M15.859375,5.93576397 C15.9218753,5.99826429 15.9635416,6.07118022 15.984375,6.15451397 C16.0052084,6.23784772 16.0052084,6.32118022 15.984375,6.40451397 C15.9635416,6.48784772 15.9244795,6.56076366 15.8671875,6.62326397 C15.8098955,6.68576429 15.7395838,6.73263882 15.65625,6.76388897 C15.3541652,6.85763944 15.0572931,6.9253471 14.765625,6.96701397 C14.4739569,7.00868085 14.1927097,7.02951397 13.921875,7.02951397 C13.6927072,7.02951397 13.4713552,7.01388913 13.2578125,6.98263897 C13.0442698,6.95138882 12.8385427,6.90451429 12.640625,6.84201397 L9.875,9.60763897 C10.1979183,10.3055591 10.3880205,11.0347185 10.4453125,11.795139 C10.5026045,12.5555594 10.4218761,13.3003437 10.203125,14.029514 C10.1718748,14.1128477 10.1250003,14.1857637 10.0625,14.248264 C9.99999969,14.3107643 9.92708375,14.3524305 9.84375,14.373264 C9.82291656,14.373264 9.80208344,14.3758681 9.78125,14.3810765 C9.76041656,14.3862848 9.73958344,14.388889 9.71875,14.388889 C9.65624969,14.388889 9.59375031,14.3758683 9.53125,14.3498265 C9.46874969,14.3237847 9.41145859,14.2847226 9.359375,14.232639 L5.90625,10.748264 L1,15.607639 L1.42108547e-14,15.998264 L0.40625,14.904514 L5.203125,10.045139 L1.78125,6.59201397 C1.71874969,6.52951366 1.6744793,6.45659772 1.6484375,6.37326397 C1.6223957,6.28993022 1.61979156,6.20659772 1.640625,6.12326397 C1.66145844,6.03993022 1.70312469,5.96701429 1.765625,5.90451397 C1.82812531,5.84201366 1.90104125,5.79513913 1.984375,5.76388897 C2.25520969,5.68055522 2.53385273,5.61805585 2.8203125,5.57638897 C3.10677227,5.5347221 3.39583188,5.51388897 3.6875,5.51388897 C4.15625234,5.51388897 4.61978938,5.56597179 5.078125,5.67013897 C5.53646063,5.77430616 5.97916453,5.92534632 6.40625,6.12326397 L9.109375,3.42013897 C9.11979172,3.40972226 9.13541656,3.39930569 9.15625,3.38888897 C9.02083266,2.93055335 8.96354156,2.44878733 8.984375,1.94357647 C9.00520844,1.43836562 9.0989575,0.909725068 9.265625,0.357638975 C9.29687516,0.274305225 9.34374969,0.201389287 9.40625,0.138888975 C9.46875031,0.0763886621 9.54166625,0.0347224121 9.625,0.0138889746 C9.71875047,-0.00694446288 9.80729125,-0.00434032225 9.890625,0.0217014746 C9.97395875,0.0477432715 10.0468747,0.0920136621 10.109375,0.154513975 L15.859375,5.93576397 Z M9.421875,12.873264 C9.47395859,12.4670119 9.47395859,12.0581619 9.421875,11.6467015 C9.36979141,11.2352411 9.2734382,10.8315993 9.1328125,10.435764 C8.9921868,10.0399287 8.80468867,9.65711999 8.5703125,9.28732647 C8.33593633,8.91753296 8.06250156,8.57639054 7.75,8.26388897 C7.43749844,7.95138741 7.09635602,7.67534851 6.7265625,7.43576397 C6.35676898,7.19617944 5.97135617,7.00347304 5.5703125,6.85763897 C5.16926883,6.71180491 4.76302289,6.61024343 4.3515625,6.55295147 C3.94010211,6.49565952 3.53125203,6.49305538 3.125,6.54513897 L9.421875,12.873264 Z M9.375,8.70138897 L11.640625,6.43576397 C11.4322906,6.32118007 11.2291677,6.1883689 11.03125,6.03732647 C10.8333323,5.88628405 10.6406259,5.71701491 10.453125,5.52951397 C10.2760408,5.34201304 10.1119799,5.15451491 9.9609375,4.96701397 C9.80989508,4.77951304 9.67708391,4.58159835 9.5625,4.37326397 L7.3125,6.62326397 C7.52083438,6.75868132 7.71874906,6.90451319 7.90625,7.06076397 C8.09375094,7.21701476 8.27604078,7.38367976 8.453125,7.56076397 C8.63020922,7.73784819 8.79687422,7.92013804 8.953125,8.10763897 C9.10937578,8.29513991 9.24999938,8.4930546 9.375,8.70138897 Z M11.171875,4.81076397 C11.6614608,5.30034976 12.1796848,5.64409632 12.7265625,5.84201397 C13.2734402,6.03993163 13.8697884,6.09201444 14.515625,5.99826397 L10.03125,1.49826397 C9.93749953,2.14410054 9.98176992,2.7378446 10.1640625,3.27951397 C10.3463551,3.82118335 10.6822892,4.33159491 11.171875,4.81076397 Z" id="" fill="#68819F" fill-rule="nonzero"></path>
    </g>
</svg>