<?xml version="1.0" encoding="UTF-8"?>
<svg width="14px" height="14px" viewBox="0 0 14 14" version="1.1" xmlns="http://www.w3.org/2000/svg" xmlns:xlink="http://www.w3.org/1999/xlink">
    <!-- Generator: Sketch 53.2 (72643) - https://sketchapp.com -->
    <title>icon/apps</title>
    <desc>Created with Sketch.</desc>
    <g id="icon/apps" stroke="none" stroke-width="1" fill="none" fill-rule="evenodd">
        <path d="M10,13.36 L10,10 L13.36,10 L13.36,13.36 L10,13.36 Z M10,8.36 L10,5 L13.36,5 L13.36,8.36 L10,8.36 Z M5,3.36 L5,7.10542736e-15 L8.36,7.10542736e-15 L8.36,3.36 L5,3.36 Z M10,7.10542736e-15 L13.36,7.10542736e-15 L13.36,3.36 L10,3.36 L10,7.10542736e-15 Z M5,8.36 L5,5 L8.36,5 L8.36,8.36 L5,8.36 Z M0,8.36 L0,5 L3.36,5 L3.36,8.36 L0,8.36 Z M0,13.36 L0,10 L3.36,10 L3.36,13.36 L0,13.36 Z M5,13.36 L5,10 L8.36,10 L8.36,13.36 L5,13.36 Z M0,3.36 L0,7.10542736e-15 L3.36,7.10542736e-15 L3.36,3.36 L0,3.36 Z" id="" fill="#F2F5F9" fill-rule="nonzero"></path>
    </g>
</svg>