<?xml version="1.0" encoding="UTF-8"?>
<svg width="16px" height="16px" viewBox="0 0 16 16" version="1.1" xmlns="http://www.w3.org/2000/svg" xmlns:xlink="http://www.w3.org/1999/xlink">
    <!-- Generator: Sketch 53.2 (72643) - https://sketchapp.com -->
    <title>icon/candidates</title>
    <desc>Created with Sketch.</desc>
    <g id="icon/candidates" stroke="none" stroke-width="1" fill="none" fill-rule="evenodd">
        <path d="M1,13.984375 L1,15 L12,15 L12,16 L1,16 C0.729165312,16 0.494792656,15.9010427 0.296875,15.703125 C0.0989573438,15.5052073 0,15.2708347 0,15 L0,13.5 C0,13.2187486 0.166665,12.9817718 0.5,12.7890625 L1,12.5 L5.390625,10.421875 C5.03645656,10.1406236 4.73958453,9.80468945 4.5,9.4140625 C4.26041547,9.02343555 4.06510492,8.61979375 3.9140625,8.203125 C3.76302008,7.78645625 3.65625031,7.38281445 3.59375,6.9921875 C3.53124969,6.60156055 3.5,6.27083469 3.5,6 L3.5,3.5 C3.5,3.08333125 3.63020703,2.66666875 3.890625,2.25 C4.15104297,1.83333125 4.49478953,1.458335 4.921875,1.125 C5.34896047,0.791665 5.83072648,0.520834375 6.3671875,0.3125 C6.90364852,0.104165625 7.44791391,0 8,0 C8.55208609,0 9.09635148,0.104165625 9.6328125,0.3125 C10.1692735,0.520834375 10.6484354,0.791665 11.0703125,1.125 C11.4921896,1.458335 11.8359362,1.83333125 12.1015625,2.25 C12.3671888,2.66666875 12.5,3.08333125 12.5,3.5 L12.5,6 C12.5,6.30208484 12.4687503,6.65103969 12.40625,7.046875 C12.3437497,7.44271031 12.2395841,7.84635211 12.09375,8.2578125 C11.9479159,8.66927289 11.7552095,9.06510227 11.515625,9.4453125 C11.2760405,9.82552273 10.9843767,10.1562486 10.640625,10.4375 L11.96875,11.046875 L11.71875,12.046875 L10.21875,11.34375 C10.0624992,11.270833 9.93229219,11.1640632 9.828125,11.0234375 C9.72395781,10.8828118 9.66145844,10.7239592 9.640625,10.546875 C9.63020828,10.3697908 9.65624969,10.2031258 9.71875,10.046875 C9.78125031,9.89062422 9.88020766,9.75520891 10.015625,9.640625 C10.5572944,9.22395625 10.940103,8.63281633 11.1640625,7.8671875 C11.388022,7.10155867 11.5,6.47916906 11.5,6 L11.5,3.5 C11.5,3.22916531 11.3958344,2.94791813 11.1875,2.65625 C10.9791656,2.36458188 10.7109391,2.09635539 10.3828125,1.8515625 C10.0546859,1.60676961 9.68229375,1.40364664 9.265625,1.2421875 C8.84895625,1.08072836 8.42708547,1 8,1 C7.57291453,1 7.15104375,1.08072836 6.734375,1.2421875 C6.31770625,1.40364664 5.94271,1.60937375 5.609375,1.859375 C5.27604,2.10937625 5.00781352,2.38020687 4.8046875,2.671875 C4.60156148,2.96354313 4.5,3.23958203 4.5,3.5 L4.5,6 C4.5,6.48958578 4.62239461,7.11457953 4.8671875,7.875 C5.11198039,8.63542047 5.49478906,9.22395625 6.015625,9.640625 C6.15104234,9.74479219 6.25260383,9.87760336 6.3203125,10.0390625 C6.38802117,10.2005216 6.41145844,10.3697908 6.390625,10.546875 C6.36979156,10.7135425 6.30729219,10.8671868 6.203125,11.0078125 C6.09895781,11.1484382 5.96875078,11.255208 5.8125,11.328125 L1.421875,13.40625 C1.35937469,13.4270834 1.27343805,13.4791663 1.1640625,13.5625 C1.05468695,13.6458337 1,13.7864573 1,13.984375 Z M15.5,13 C15.6354173,13 15.7526037,13.0494787 15.8515625,13.1484375 C15.9505213,13.2473963 16,13.3645827 16,13.5 C16,13.6354173 15.9505213,13.7526037 15.8515625,13.8515625 C15.7526037,13.9505213 15.6354173,14 15.5,14 L14,14 L14,15.5 C14,15.6354173 13.9505213,15.7526037 13.8515625,15.8515625 C13.7526037,15.9505213 13.6354173,16 13.5,16 C13.3645827,16 13.2473963,15.9505213 13.1484375,15.8515625 C13.0494787,15.7526037 13,15.6354173 13,15.5 L13,14 L11.5,14 C11.3645827,14 11.2473963,13.9505213 11.1484375,13.8515625 C11.0494787,13.7526037 11,13.6354173 11,13.5 C11,13.3645827 11.0494787,13.2473963 11.1484375,13.1484375 C11.2473963,13.0494787 11.3645827,13 11.5,13 L13,13 L13,11.5 C13,11.3645827 13.0494787,11.2473963 13.1484375,11.1484375 C13.2473963,11.0494787 13.3645827,11 13.5,11 C13.6354173,11 13.7526037,11.0494787 13.8515625,11.1484375 C13.9505213,11.2473963 14,11.3645827 14,11.5 L14,13 L15.5,13 Z" id="" fill="#042D5F" fill-rule="nonzero"></path>
    </g>
</svg>