<?xml version="1.0" encoding="UTF-8"?>
<svg width="16px" height="16px" viewBox="0 0 16 16" version="1.1" xmlns="http://www.w3.org/2000/svg" xmlns:xlink="http://www.w3.org/1999/xlink">
    <!-- Generator: Sketch 53.2 (72643) - https://sketchapp.com -->
    <title>icon/dashboard</title>
    <desc>Created with Sketch.</desc>
    <g id="icon/dashboard" stroke="none" stroke-width="1" fill="none" fill-rule="evenodd">
        <path d="M9,1.453125 C10.0208384,1.453125 10.9583291,1.6328107 11.8125,1.9921875 C12.6666709,2.3515643 13.4036427,2.84895516 14.0234375,3.484375 C14.6432323,4.11979484 15.1276024,4.87239148 15.4765625,5.7421875 C15.8255226,6.61198352 16,7.55728656 16,8.578125 C16,9.59896344 15.8046895,10.5598913 15.4140625,11.4609375 C15.0234355,12.3619837 14.4921909,13.1484341 13.8203125,13.8203125 C13.1484341,14.4921909 12.3619837,15.0234355 11.4609375,15.4140625 C10.5598913,15.8046895 9.59896344,16 8.578125,16 C7.55728656,16 6.61198352,15.8229184 5.7421875,15.46875 C4.87239148,15.1145816 4.11979484,14.622399 3.484375,13.9921875 C2.84895516,13.361976 2.3515643,12.6119835 1.9921875,11.7421875 C1.6328107,10.8723915 1.453125,9.92708844 1.453125,8.90625 C1.453125,8.77083266 1.50260367,8.65364633 1.6015625,8.5546875 C1.70052133,8.45572867 1.81770766,8.40625 1.953125,8.40625 C2.09895906,8.40625 2.21874953,8.45572867 2.3125,8.5546875 C2.40625047,8.65364633 2.453125,8.77083266 2.453125,8.90625 C2.453125,9.79167109 2.6067693,10.6067671 2.9140625,11.3515625 C3.2213557,12.0963579 3.64843477,12.7395806 4.1953125,13.28125 C4.74219023,13.8229194 5.38801711,14.2447902 6.1328125,14.546875 C6.87760789,14.8489598 7.69270391,15 8.578125,15 C9.46354609,15 10.2968711,14.8307309 11.078125,14.4921875 C11.8593789,14.1536441 12.5390596,13.6953154 13.1171875,13.1171875 C13.6953154,12.5390596 14.1536441,11.8593789 14.4921875,11.078125 C14.8307309,10.2968711 15,9.46354609 15,8.578125 C15,7.69270391 14.8541681,6.87760789 14.5625,6.1328125 C14.2708319,5.38801711 13.8593777,4.74219023 13.328125,4.1953125 C12.7968723,3.64843477 12.1640662,3.2213557 11.4296875,2.9140625 C10.6953088,2.6067693 9.88542109,2.453125 9,2.453125 C8.85416594,2.453125 8.73437547,2.40625047 8.640625,2.3125 C8.54687453,2.21874953 8.5,2.09895906 8.5,1.953125 C8.5,1.81770766 8.54687453,1.70052133 8.640625,1.6015625 C8.73437547,1.50260367 8.85416594,1.453125 9,1.453125 Z M7.5,7 C7.5,7.14583406 7.45312547,7.26562453 7.359375,7.359375 C7.26562453,7.45312547 7.14583406,7.5 7,7.5 L0.5,7.5 C0.364582656,7.5 0.247396328,7.45312547 0.1484375,7.359375 C0.0494786719,7.26562453 0,7.14583406 0,7 C0,6.03124516 0.182289844,5.11979594 0.546875,4.265625 C0.911460156,3.41145406 1.40885102,2.66927398 2.0390625,2.0390625 C2.66927398,1.40885102 3.41145406,0.911460156 4.265625,0.546875 C5.11979594,0.182289844 6.03124516,0 7,0 C7.14583406,0 7.26562453,0.0494786719 7.359375,0.1484375 C7.45312547,0.247396328 7.5,0.364582656 7.5,0.5 L7.5,7 Z M6.5,6.5 L6.5,1.015625 C5.77082969,1.07812531 5.0859407,1.26041516 4.4453125,1.5625 C3.8046843,1.86458484 3.23958578,2.26041422 2.75,2.75 C2.26041422,3.23958578 1.86458484,3.8046843 1.5625,4.4453125 C1.26041516,5.0859407 1.07812531,5.77082969 1.015625,6.5 L6.5,6.5 Z" id="îž" fill="#042D5F" fill-rule="nonzero"></path>
    </g>
</svg>