<?xml version="1.0" encoding="UTF-8"?>
<svg width="14px" height="17px" viewBox="0 0 14 17" version="1.1" xmlns="http://www.w3.org/2000/svg" xmlns:xlink="http://www.w3.org/1999/xlink">
    <!-- Generator: Sketch 53.2 (72643) - https://sketchapp.com -->
    <title>icon/notification</title>
    <desc>Created with Sketch.</desc>
    <g id="icon/notification" stroke="none" stroke-width="1" fill="none" fill-rule="evenodd">
        <path d="M11.68,11.26 L13.36,12.94 L13.36,13.76 L0,13.76 L0,12.94 L1.68,11.26 L1.68,7.12 C1.68,5.8133268 2.0066634,4.6866714 2.66,3.74 C3.32667,2.7666618 4.2533274,2.1333348 5.44,1.84 L5.44,1.26 C5.44,0.9133316 5.5599988,0.6166679 5.8,0.37 C6.0400012,0.1233321 6.3333316,-3.55271368e-15 6.68,-3.55271368e-15 C7.0266684,-3.55271368e-15 7.3233321,0.1233321 7.57,0.37 C7.8166679,0.6166679 7.94,0.9133316 7.94,1.26 L7.94,1.84 C9.1133392,2.1333348 10.03333,2.7733284 10.7,3.76 C11.3533366,4.7066714 11.68,5.8266602 11.68,7.12 L11.68,11.26 Z M6.68,16.26 C6.213331,16.26 5.8166683,16.1000016 5.49,15.78 C5.1633317,15.4599984 5,15.0733356 5,14.62 L8.36,14.62 C8.36,15.0733356 8.193335,15.4599984 7.86,15.78 C7.526665,16.1000016 7.1333356,16.26 6.68,16.26 Z" id="" fill="#F2F5F9" fill-rule="nonzero"></path>
    </g>
</svg>