<?xml version="1.0" encoding="UTF-8"?>
<svg width="14px" height="14px" viewBox="0 0 14 14" version="1.1" xmlns="http://www.w3.org/2000/svg" xmlns:xlink="http://www.w3.org/1999/xlink">
    <!-- Generator: Sketch 53.2 (72643) - https://sketchapp.com -->
    <title>icon/search</title>
    <desc>Created with Sketch.</desc>
    <g id="icon/search" stroke="none" stroke-width="1" fill="none" fill-rule="evenodd">
        <path d="M12.9785156,12.2167969 C13.0761724,12.3242193 13.125,12.4511711 13.125,12.5976562 C13.125,12.7441414 13.0761724,12.8710932 12.9785156,12.9785156 C12.8710932,13.0761724 12.7441414,13.125 12.5976562,13.125 C12.4511711,13.125 12.3291021,13.0761724 12.2314453,12.9785156 L9.21386719,9.9609375 C8.16894009,10.8203168 6.97266299,11.25 5.625,11.25 C4.07225786,11.25 2.74658752,10.7006891 1.64794922,9.60205078 C0.549310913,8.50341248 0,7.17774214 0,5.625 C0,4.07225786 0.549310913,2.74658752 1.64794922,1.64794922 C2.74658752,0.549310913 4.07225786,0 5.625,0 C7.17774214,0 8.50341248,0.549310913 9.60205078,1.64794922 C10.7006891,2.74658752 11.25,4.07225786 11.25,5.625 C11.25,6.97266299 10.8203168,8.16894009 9.9609375,9.21386719 L12.9785156,12.2167969 Z M7.39746094,9.84375 C7.94433867,9.60937383 8.43017366,9.27978728 8.85498047,8.85498047 C9.27978728,8.43017366 9.60937383,7.94433867 9.84375,7.39746094 C10.0781262,6.84081753 10.1953125,6.25000312 10.1953125,5.625 C10.1953125,4.99999688 10.0781262,4.40918247 9.84375,3.85253906 C9.60937383,3.30566133 9.27978728,2.81982634 8.85498047,2.39501953 C8.43017366,1.97021272 7.94433867,1.64062617 7.39746094,1.40625 C6.84081753,1.17187383 6.25000313,1.0546875 5.625,1.0546875 C4.99999687,1.0546875 4.40918247,1.17187383 3.85253906,1.40625 C3.30566133,1.64062617 2.81982634,1.97021272 2.39501953,2.39501953 C1.97021272,2.81982634 1.64550894,3.30566133 1.42089844,3.85253906 C1.17675659,4.40918247 1.0546875,4.99999688 1.0546875,5.625 C1.0546875,6.25000312 1.17675659,6.84081753 1.42089844,7.39746094 C1.64550894,7.94433867 1.97021272,8.43017366 2.39501953,8.85498047 C2.81982634,9.27978728 3.30566133,9.60937383 3.85253906,9.84375 C4.40918247,10.0781262 4.99999687,10.1953125 5.625,10.1953125 C6.25000313,10.1953125 6.84081753,10.0781262 7.39746094,9.84375 Z" id="" fill="#00A69C" fill-rule="nonzero"></path>
    </g>
</svg>